<?xml version="1.0" encoding="UTF-8"?>
<svg id="svg4" version="1.1" viewBox="0 0 384 512" xmlns="http://www.w3.org/2000/svg">
 <!--! Font Awesome Pro 6.4.0 by @fontawesome - https://fontawesome.com License - https://fontawesome.com/license (Commercial License) Copyright 2023 Fonticons, Inc. -->
 <path id="path2" d="m162.4 6c-1.5-3.6-5-6-8.9-6h-19c-3.9 0-7.5 2.4-8.9 6l-20.7 51.7c-3.2 8-14.6 8-17.8 0l-20.7-51.7c-1.5-3.6-5-6-8.9-6h-9.5c-26.5 0-48 21.5-48 48v208h384v-208c0-26.5-21.5-48-48-48h-105.5c-3.9 0-7.5 2.4-8.9 6l-20.7 51.7c-3.2 8-14.6 8-17.8 0l-20.7-51.7zm-162.4 282v32c0 35.3 28.7 64 64 64h64v64c0 35.3 28.7 64 64 64s64-28.7 64-64v-64h64c35.3 0 64-28.7 64-64v-32h-384zm192 144a16 16 0 1 1 0 32 16 16 0 1 1 0-32z" fill="#3d4b71"/>
</svg>
